<svg xmlns="http://www.w3.org/2000/svg" viewBox="0 0 128 128">
  <defs>
    <linearGradient id="mainGrad" x1="0%" y1="0%" x2="100%" y2="100%">
      <stop offset="0%" stop-color="#818cf8"/> <!-- Indigo 400 -->
      <stop offset="100%" stop-color="#22d3ee"/> <!-- Cyan 400 -->
    </linearGradient>
  </defs>
  <rect width="128" height="128" rx="32" fill="#111827"/>
  <g fill="none" stroke="url(#mainGrad)" stroke-width="10" stroke-linecap="round" stroke-linejoin="round">
    <path d="M42 34 H32 a10 10 0 0 0-10 10 v40 a10 10 0 0 0 10 10 h10"/>
    <path d="M86 94 H96 a10 10 0 0 0 10-10 v-40 a10 10 0 0 0-10-10 h-10"/>
  </g>
  <g fill="white">
    <rect x="48" y="44" width="32" height="8" rx="4"/>
    <rect x="48" y="60" width="20" height="8" rx="4" opacity="0.7"/>
    <rect x="48" y="76" width="28" height="8" rx="4" opacity="0.4"/>
  </g>
  <!-- Sparkle -->
  <path d="M100 28 L103 35 L110 38 L103 41 L100 48 L97 41 L90 38 L97 35 Z" fill="#facc15"/>
</svg>